<?xml version="1.0" encoding="UTF-8"?>
<svg width="24px" height="10px" viewBox="0 0 24 10" version="1.1" xmlns="http://www.w3.org/2000/svg" xmlns:xlink="http://www.w3.org/1999/xlink">
    <title>tiphot@2x</title>
    <g id="页面-1" stroke="none" stroke-width="1" fill="none" fill-rule="evenodd">
        <g id="4-1-企业会员-文案icon调整" transform="translate(-383.000000, -1396.000000)" fill="#FF5448" fill-rule="nonzero">
            <g id="头部备份-2" transform="translate(84.000000, 1386.000000)">
                <g id="头部/选中" transform="translate(240.000000, 0.000000)">
                    <g id="形状结合" transform="translate(59.000000, 10.000000)">
                        <path d="M19,10 L5,10 C2.23971869,9.99724385 0.00275614915,7.76028131 0,5 C0.00330611633,2.23994685 2.23994685,0.00330611633 5,0 L19,0 C21.7600532,0.00330611633 23.9966939,2.23994685 24,5 C23.9972439,7.76028131 21.7602813,9.99724385 19,10 Z M17.37,3.25 L17.37,8 L18.62,8 L18.62,3.25 L20.5,3.25 L20.5,2 L15.5,2 L15.5,3.251 L17.37,3.25 Z M4.75,2 L3.5,2 L3.5,8 L4.75,8 L4.75,5.5 L7.25,5.5 L7.299,8 L8.499,8 L8.499,2 L7.249,2 L7.298,4.25 L4.748,4.25 L4.75,2 Z M10.5,2 C9.94771525,2 9.5,2.44771525 9.5,3 L9.5,7 C9.5,7.55228475 9.94771525,8 10.5,8 L13.5,8 C14.0522847,8 14.5,7.55228475 14.5,7 L14.5,3 C14.5,2.44771525 14.0522847,2 13.5,2 L10.5,2 Z M13,6.75 L11,6.75 C10.8619288,6.75 10.75,6.63807119 10.75,6.5 L10.75,3.5 C10.75,3.36192881 10.8619288,3.25 11,3.25 L13,3.25 C13.1380712,3.25 13.25,3.36192881 13.25,3.5 L13.25,6.5 C13.25,6.63807119 13.1380712,6.75 13,6.75 Z"></path>
                    </g>
                </g>
            </g>
        </g>
    </g>
</svg>